<svg width="186" height="29" viewBox="0 0 186 29" fill="none" xmlns="http://www.w3.org/2000/svg">
<path d="M23.8686 10.9844H18.2692C18.1669 10.2599 17.9581 9.61648 17.6428 9.05398C17.3274 8.48295 16.9226 7.99716 16.4283 7.59659C15.9339 7.19602 15.3629 6.8892 14.7152 6.67614C14.076 6.46307 13.3814 6.35653 12.6314 6.35653C11.2763 6.35653 10.0959 6.69318 9.0902 7.36648C8.08452 8.03125 7.30469 9.00284 6.75071 10.2812C6.19673 11.5511 5.91974 13.0937 5.91974 14.9091C5.91974 16.7756 6.19673 18.3437 6.75071 19.6136C7.31321 20.8835 8.0973 21.8423 9.10298 22.4901C10.1087 23.1378 11.272 23.4616 12.593 23.4616C13.3345 23.4616 14.0206 23.3636 14.6513 23.1676C15.2905 22.9716 15.8572 22.6861 16.3516 22.3111C16.8459 21.9276 17.255 21.4631 17.5788 20.9176C17.9112 20.3722 18.1413 19.75 18.2692 19.0511L23.8686 19.0767C23.7237 20.2784 23.3615 21.4375 22.782 22.554C22.2109 23.6619 21.4396 24.6548 20.468 25.5327C19.505 26.402 18.3544 27.0923 17.0163 27.6037C15.6868 28.1065 14.1825 28.358 12.5036 28.358C10.1683 28.358 8.08026 27.8295 6.23935 26.7727C4.40696 25.7159 2.9581 24.1861 1.89276 22.1832C0.835938 20.1804 0.307528 17.7557 0.307528 14.9091C0.307528 12.054 0.84446 9.625 1.91832 7.62216C2.99219 5.61932 4.44957 4.09375 6.29048 3.04545C8.13139 1.98864 10.2024 1.46023 12.5036 1.46023C14.0206 1.46023 15.4268 1.67329 16.7223 2.09943C18.0263 2.52557 19.1811 3.14773 20.1868 3.96591C21.1925 4.77557 22.0107 5.76846 22.6413 6.9446C23.2805 8.12074 23.6896 9.46733 23.8686 10.9844ZM33.1818 1.81818V28H27.7358V1.81818H33.1818ZM37.5444 28V8.36364H42.9904V28H37.5444ZM40.2802 5.83239C39.4705 5.83239 38.7759 5.56392 38.1964 5.02699C37.6254 4.48153 37.3398 3.82954 37.3398 3.07102C37.3398 2.32102 37.6254 1.67756 38.1964 1.14062C38.7759 0.59517 39.4705 0.322442 40.2802 0.322442C41.0898 0.322442 41.7802 0.59517 42.3512 1.14062C42.9308 1.67756 43.2205 2.32102 43.2205 3.07102C43.2205 3.82954 42.9308 4.48153 42.3512 5.02699C41.7802 5.56392 41.0898 5.83239 40.2802 5.83239ZM56.2251 28.3835C54.2138 28.3835 52.4837 27.9574 51.0348 27.1051C49.5945 26.2443 48.4865 25.0511 47.7109 23.5256C46.9439 22 46.5604 20.2443 46.5604 18.2585C46.5604 16.2472 46.9482 14.483 47.7237 12.9659C48.5078 11.4403 49.62 10.2514 51.0604 9.39915C52.5007 8.53835 54.2138 8.10795 56.1996 8.10795C57.9126 8.10795 59.4126 8.41903 60.6996 9.04119C61.9865 9.66335 63.005 10.5369 63.755 11.6619C64.505 12.7869 64.9183 14.108 64.995 15.625H59.8558C59.7109 14.6449 59.3274 13.8565 58.7053 13.2599C58.0916 12.6548 57.2862 12.3523 56.2891 12.3523C55.4453 12.3523 54.7081 12.5824 54.0774 13.0426C53.4553 13.4943 52.9695 14.1548 52.62 15.0241C52.2706 15.8935 52.0959 16.946 52.0959 18.1818C52.0959 19.4347 52.2663 20.5 52.6072 21.3778C52.9567 22.2557 53.4467 22.9247 54.0774 23.3849C54.7081 23.8452 55.4453 24.0753 56.2891 24.0753C56.9112 24.0753 57.4695 23.9474 57.9638 23.6918C58.4666 23.4361 58.88 23.0653 59.2038 22.5795C59.5362 22.0852 59.7536 21.4929 59.8558 20.8026H64.995C64.9098 22.3026 64.5007 23.6236 63.7678 24.7656C63.0433 25.8991 62.0419 26.7855 60.7635 27.4247C59.4851 28.0639 57.9723 28.3835 56.2251 28.3835ZM73.4165 22.3494L73.4293 15.8168H74.2219L80.5117 8.36364H86.7631L78.3129 18.233H77.0217L73.4165 22.3494ZM68.4819 28V1.81818H73.9279V28H68.4819ZM80.7546 28L74.9762 19.4474L78.6069 15.5994L87.1339 28H80.7546ZM89.5373 28V1.81818H99.8668C101.853 1.81818 103.544 2.19744 104.942 2.95597C106.34 3.70597 107.405 4.75 108.138 6.08807C108.88 7.41761 109.25 8.9517 109.25 10.6903C109.25 12.429 108.875 13.9631 108.125 15.2926C107.375 16.6222 106.289 17.6577 104.865 18.3991C103.451 19.1406 101.738 19.5114 99.7262 19.5114H93.1424V15.0753H98.8313C99.8967 15.0753 100.775 14.892 101.465 14.5256C102.164 14.1506 102.684 13.6349 103.025 12.9787C103.374 12.3139 103.549 11.5511 103.549 10.6903C103.549 9.82102 103.374 9.0625 103.025 8.41477C102.684 7.75852 102.164 7.25142 101.465 6.89347C100.766 6.52699 99.8796 6.34375 98.8058 6.34375H95.0728V28H89.5373ZM121.299 28.3835C119.314 28.3835 117.596 27.9616 116.147 27.1179C114.707 26.2656 113.595 25.081 112.811 23.5639C112.027 22.0384 111.635 20.2699 111.635 18.2585C111.635 16.2301 112.027 14.4574 112.811 12.9403C113.595 11.4148 114.707 10.2301 116.147 9.38636C117.596 8.53409 119.314 8.10795 121.299 8.10795C123.285 8.10795 124.998 8.53409 126.439 9.38636C127.887 10.2301 129.004 11.4148 129.788 12.9403C130.572 14.4574 130.964 16.2301 130.964 18.2585C130.964 20.2699 130.572 22.0384 129.788 23.5639C129.004 25.081 127.887 26.2656 126.439 27.1179C124.998 27.9616 123.285 28.3835 121.299 28.3835ZM121.325 24.1648C122.228 24.1648 122.983 23.9091 123.588 23.3977C124.193 22.8778 124.649 22.1705 124.956 21.2756C125.271 20.3807 125.429 19.3622 125.429 18.2202C125.429 17.0781 125.271 16.0597 124.956 15.1648C124.649 14.2699 124.193 13.5625 123.588 13.0426C122.983 12.5227 122.228 12.2628 121.325 12.2628C120.413 12.2628 119.646 12.5227 119.024 13.0426C118.41 13.5625 117.946 14.2699 117.63 15.1648C117.324 16.0597 117.17 17.0781 117.17 18.2202C117.17 19.3622 117.324 20.3807 117.63 21.2756C117.946 22.1705 118.41 22.8778 119.024 23.3977C119.646 23.9091 120.413 24.1648 121.325 24.1648ZM150.843 13.9631L145.858 14.2699C145.772 13.8437 145.589 13.4602 145.308 13.1193C145.027 12.7699 144.656 12.4929 144.196 12.2884C143.744 12.0753 143.203 11.9688 142.572 11.9688C141.728 11.9688 141.017 12.1477 140.437 12.5057C139.858 12.8551 139.568 13.3239 139.568 13.9119C139.568 14.3807 139.755 14.777 140.13 15.1009C140.505 15.4247 141.149 15.6847 142.061 15.8807L145.615 16.5966C147.524 16.9886 148.947 17.6193 149.885 18.4886C150.822 19.358 151.291 20.5 151.291 21.9148C151.291 23.2017 150.912 24.331 150.153 25.3026C149.403 26.2741 148.372 27.0327 147.059 27.5781C145.755 28.1151 144.251 28.3835 142.547 28.3835C139.947 28.3835 137.876 27.8423 136.333 26.7599C134.799 25.669 133.9 24.1861 133.636 22.3111L138.993 22.0298C139.154 22.8224 139.547 23.4276 140.169 23.8452C140.791 24.2543 141.588 24.4588 142.559 24.4588C143.514 24.4588 144.281 24.2756 144.86 23.9091C145.449 23.5341 145.747 23.0526 145.755 22.4645C145.747 21.9702 145.538 21.5653 145.129 21.25C144.72 20.9261 144.089 20.679 143.237 20.5085L139.836 19.831C137.919 19.4474 136.491 18.7827 135.554 17.8366C134.625 16.8906 134.16 15.6847 134.16 14.2188C134.16 12.9574 134.501 11.8707 135.183 10.9588C135.873 10.0469 136.841 9.34375 138.085 8.84943C139.338 8.35511 140.804 8.10795 142.483 8.10795C144.963 8.10795 146.914 8.6321 148.338 9.6804C149.77 10.7287 150.605 12.1562 150.843 13.9631ZM165.165 8.36364V12.4545H153.339V8.36364H165.165ZM156.024 3.65909H161.47V21.9659C161.47 22.4687 161.547 22.8608 161.7 23.142C161.854 23.4148 162.067 23.6065 162.339 23.7173C162.621 23.8281 162.945 23.8835 163.311 23.8835C163.567 23.8835 163.822 23.8622 164.078 23.8196C164.334 23.7685 164.53 23.7301 164.666 23.7045L165.523 27.7571C165.25 27.8423 164.866 27.9403 164.372 28.0511C163.878 28.1705 163.277 28.2429 162.57 28.2685C161.257 28.3196 160.107 28.1449 159.118 27.7443C158.138 27.3437 157.375 26.7216 156.83 25.8778C156.284 25.0341 156.016 23.9687 156.024 22.6818V3.65909ZM184.804 13.9631L179.819 14.2699C179.733 13.8437 179.55 13.4602 179.269 13.1193C178.988 12.7699 178.617 12.4929 178.157 12.2884C177.705 12.0753 177.164 11.9688 176.533 11.9688C175.689 11.9688 174.978 12.1477 174.398 12.5057C173.819 12.8551 173.529 13.3239 173.529 13.9119C173.529 14.3807 173.716 14.777 174.091 15.1009C174.466 15.4247 175.11 15.6847 176.022 15.8807L179.576 16.5966C181.485 16.9886 182.908 17.6193 183.846 18.4886C184.783 19.358 185.252 20.5 185.252 21.9148C185.252 23.2017 184.873 24.331 184.114 25.3026C183.364 26.2741 182.333 27.0327 181.02 27.5781C179.716 28.1151 178.212 28.3835 176.507 28.3835C173.908 28.3835 171.837 27.8423 170.294 26.7599C168.76 25.669 167.861 24.1861 167.597 22.3111L172.953 22.0298C173.115 22.8224 173.507 23.4276 174.13 23.8452C174.752 24.2543 175.549 24.4588 176.52 24.4588C177.475 24.4588 178.242 24.2756 178.821 23.9091C179.409 23.5341 179.708 23.0526 179.716 22.4645C179.708 21.9702 179.499 21.5653 179.09 21.25C178.681 20.9261 178.05 20.679 177.198 20.5085L173.797 19.831C171.88 19.4474 170.452 18.7827 169.515 17.8366C168.586 16.8906 168.121 15.6847 168.121 14.2188C168.121 12.9574 168.462 11.8707 169.144 10.9588C169.834 10.0469 170.801 9.34375 172.046 8.84943C173.299 8.35511 174.765 8.10795 176.444 8.10795C178.924 8.10795 180.875 8.6321 182.299 9.6804C183.73 10.7287 184.566 12.1562 184.804 13.9631Z" fill="white"/>
</svg>
